# xmcd
#
# Track frame offsets:
#	150
#	24815
#	42290
#	59262
#	73900
#	88987
#	106922
#	122092
#	140307
#	156587
#	176140
#	194292
#	209312
#	225232
#	240835
#
# Disc length: 3376 seconds
#
# Revision: 1
# Processed by: cddbd v1.5.1PL2 Copyright (c) Steve Scherf et al.
# Submitted via: audiograbber 1.83.01
#
DISCID=c90d2e0f
DTITLE=Music Maestro - MM6207
DYEAR=1900
DGENRE=Karaoke
TTITLE0=Carlisle, Bob - Butterfly Kisses
TTITLE1=Strait, George - Carrying Your Love With Me
TTITLE2=Lonestar - Come Cryin' To Me
TTITLE3=Kersh, David - Day In Day Out
TTITLE4=Byrd, Tracy - Don't Love Make A Diamond Shine
TTITLE5=McCann, Lila - Down Came A Blackbird
TTITLE6=Ricochet - He Left A Lot To Be Desired
TTITLE7=Messina, Jo Dee - He'd Never Seen Julie Cry
TTITLE8=Lawrence, Tracy - How A Cowgirl Says Goodbye
TTITLE9=Yearwood, Trisha - How Do I Live
TTITLE10=McGraw, Tim and Faith Hill - It's Your Love
TTITLE11=Clark, Terri - Just The Same
TTITLE12=McCoy, Neal - Shake, The
TTITLE13=Chesney, Kenny - She's Got It All
TTITLE14=Little Texas - Your Mama Won't Let Me
EXTD=As Listed In KJ Pro
EXTT0=
EXTT1=
EXTT2=
EXTT3=
EXTT4=
EXTT5=
EXTT6=
EXTT7=
EXTT8=
EXTT9=
EXTT10=
EXTT11=
EXTT12=
EXTT13=
EXTT14=
PLAYORDER=
